
<svg xmlns="http://www.w3.org/2000/svg" version="1.1" xmlns:xlink="http://www.w3.org/1999/xlink" preserveAspectRatio="none" x="0px" y="0px" width="205px" height="150px" viewBox="0 0 205 150">
<defs>
<g id="Layer0_0_FILL">
<path fill="#222222" stroke="none" d="
M 179.25 28.75
Q 174.75 29.65 168.85 29.1 165.15 28.8 158.55 27.45
L 142.7 24.4
Q 138.7 23.65 136.6 22.95 133.3 21.55 131.25 20.95 129.65 20.55 127 20.55 125.55 20.55 122.5 20.75 116.45 21.2 103.15 21.1 97.9 20.95 95.8 20.25 94.75 19.95 93.3 19.2
L 91 18.1
Q 88.65 17.05 84 16
L 45.95 7.05
Q 37.5 5.05 32.55 4.55 30 4.35 25.1 4.35
L 17.5 4.3
Q 8.3 4 2.65 0.75
L 2.1 0.55
Q 1.95 0.7 2.05 0.95
L 2.2 1.2 2.45 1.45 2.35 1.75
Q 2.25 2.05 2.35 2.45 2.7 4 3.65 7
L 5.05 11.6
Q 6.45 17.05 6.45 24.6 6.45 26.9 5.9 37.7 5.7 42.45 5.85 74.3 5.95 97.15 3.45 110.85 2.65 116 2.55 117.35 2.55 119.75 3.35 124.75 3.55 125.85 3.9 126.1 4.4 126.35 5.2 126.35
L 13.05 126.45
Q 16.2 126.55 18 126.15 19.4 125.85 20.75 125.3
L 23.65 124.4
Q 28.1 123.3 32.5 124.8 35 125.7 39.65 128.5 43.35 130.5 48.8 131.65 52.05 132.3 58.65 133.15
L 62.35 133.55
Q 63.8 133.6 65.95 133.5 68.45 133.25 71.9 132 72.55 131.9 73.8 131.35
L 73.9 131.35 75.4 131.05 87.35 130.8
Q 92.35 130.55 95.05 131.25 97.15 131.75 102.05 134.3 116.8 142.05 128.55 142.65 133.95 142.9 146.35 141.15 157.75 139.5 164.35 140.3 169.7 140.9 176.75 143.55 179.5 144.6 188.6 148.35 188.8 148.45 189.2 148.45
L 189.75 148.5 189.75 149 189.95 149.1
Q 190.1 149.1 190.3 148.8
L 190.7 147.8
Q 191.05 147.2 191.65 146.6 192.15 145.9 193 144.45
L 194.7 141.15
Q 195.25 140.2 195.45 139.5 195.7 138.75 195.75 137.15 195.75 135.65 195.95 134.55
L 196.4 132.7
Q 196.5 132.2 196.5 130.15 196.6 128.05 196.95 126.2
L 197.15 125.1
Q 197.25 124.05 197.25 122.05 197.15 121.55 197.15 121.5
L 197.05 121.35 197.1 121.15
Q 197.85 113.45 196.05 108.25
L 191.8 98.05 191.6 97.8
Q 191.4 97.55 191.25 97 190.95 96.35 190.8 94.7
L 190.65 94.15
Q 190.25 93.25 190.25 92.35
L 190.15 84.5
Q 190.15 80.3 190.45 78.55 190.7 76.8 191.5 74.3
L 194.9 62.6
Q 196.25 56.75 196.25 49.35 196.35 41.45 194.4 37 194.3 36.85 194.3 36.6
L 193.45 34.55 193.45 34.45 193.1 32.75 192.2 30.55
Q 191.45 28.85 191.3 27.95
L 191.1 27.05 190.9 26.7 190.55 26.35
Q 190.05 26.25 189.1 26.3 186.85 26.7 184.25 27.45 180.5 28.5 179.25 28.75 Z"/>
</g>
</defs>

<g transform="matrix( 1, 0, 0, 1, 0,0) ">
<use xlink:href="#Layer0_0_FILL"/>
</g>
</svg>
