
<svg xmlns="http://www.w3.org/2000/svg" version="1.1" xmlns:xlink="http://www.w3.org/1999/xlink" preserveAspectRatio="none" x="0px" y="0px" width="205px" height="150px" viewBox="0 0 205 150">
<defs>
<g id="Layer0_0_FILL">
<path fill="#222222" stroke="none" d="
M 198.1 25.5
L 198.4 26.3 198.2 25.65 198.1 25.5
M 193.5 24.65
L 187.2 24
Q 183.8 23.8 181.05 23.85 176.6 24.25 173.7 24.35 170.5 24.25 165.05 23.55
L 154.75 22.2
Q 149.15 21.45 146 20.3
L 141.1 18.3
Q 136.05 16.5 128.05 16.75 114.75 17.35 114.45 17.25 112.25 17.15 106.8 16.45
L 96.3 15
Q 93 14.65 91.35 14.1
L 88.5 13.05
Q 86.5 12.15 85.75 11.9 80.25 9.7 74.3 9.75 71.55 9.75 65.4 10.8 59.6 11.8 56.25 11.5 52 11.35 46.4 9.5 45.2 9.1 45.1 9.05 43.6 8.9 42.75 8.9
L 39.85 8.65
Q 39.4 8.65 39.2 8.55
L 36.5 7.95 27.4 4.75
Q 24.5 3.8 23.7 3.65 21.8 3.25 20.3 3.15
L 18.5 3.05 18.4 3 13.35 2.4 11.65 2.55 7.65 3.5
Q 7.2 3.7 6.55 3.7
L 3.8 4.75
Q 3.25 4.9 3.15 5.05
L 3.2 5.35 3.4 5.6 3.3 5.85 3.3 6.05
Q 2.85 14.9 2.9 25.95 2.9 31.2 3.15 45.95
L 3.05 68.6
Q 2.9 75.5 3.4 79.35
L 3.45 79.65 3.25 79.85
Q 3 80.1 2.95 80.8
L 3.4 125.2
Q 3.4 125.75 3.55 126.05
L 3.75 126.55 3.25 126.8 3.25 126.95 3.35 127.05
Q 3.6 127.25 4.3 127.35 5.15 127.35 6.2 127.15
L 7.25 127.1 7.3 127 7.6 126.7 7.95 126.85
Q 8.4 127 9.2 126.95 17.55 126.2 26.05 127.05
L 35.55 128.7
Q 37.65 129.45 38.55 130
L 41.35 130.65 42.05 130.9 42.35 131.05
Q 45.9 132.2 51.2 132.85 60.05 133.85 65.15 133.05 65.15 133 68 132.5 69.8 132.15 71 132.05 73.35 131.85 78.45 132.45 83.75 133.1 86.7 133.9 89.35 134.8 93.4 136.5 97.8 138.45 99.95 138.95 102.7 139.6 105.6 139.95 109.65 140.1 111.2 140.1 115.05 140.2 117.15 139.95
L 122.1 139.1
Q 123.95 138.85 125.65 138.85 126.95 138.85 128.35 139 139.55 139.75 149.65 143.25
L 156.1 145.5
Q 159.55 146.6 162.55 146.9 165.45 147.1 170 146.35
L 177.55 145
Q 185.3 144.1 193.55 146.65
L 193.85 146.75 194 146.75 194 146.35 194.65 146.65 194.75 142.9
Q 194.75 140.8 194.55 139.4
L 193.95 136.55
Q 193.7 135.3 193.7 132.8 193.4 121.1 193.55 109.25 193.4 108.35 193.4 108.3
L 193.2 108 192.95 107.75 193.05 107.45
Q 193.3 106.35 193.3 104.1 193.05 101 193.15 99.45 193.15 98.05 193.6 96
L 194.2 92.75
Q 194.65 89.85 194.55 84.35 194.4 77.8 194.55 75.7 194.65 73.65 195.05 70 195.45 66.45 195.5 64.4
L 195.45 61.4
Q 195.45 59.45 195.65 58.4
L 196.6 54.35
Q 196.75 53.4 196.75 51.9
L 196.7 49.25
Q 196.7 46.1 197.9 38.35 198.7107421875 32.75625 198.65 29.2 198.6568359375 28.3693359375 198.6 27.65
L 198.55 27.4 198.5 27.25 198.1 25.5
Q 196.5302734375 25.0640625 194.2 24.75 193.858203125 24.6947265625 193.5 24.65 Z"/>
</g>
</defs>

<g transform="matrix( 1, 0, 0, 1, 0,0) ">
<use xlink:href="#Layer0_0_FILL"/>
</g>
</svg>
