
<svg xmlns="http://www.w3.org/2000/svg" version="1.1" xmlns:xlink="http://www.w3.org/1999/xlink" preserveAspectRatio="none" x="0px" y="0px" width="205px" height="150px" viewBox="0 0 205 150">
<defs>
<g id="Layer0_0_FILL">
<path fill="#222222" stroke="none" d="
M 192.8 24.65
L 192.75 24.65
Q 188.75 24.4 186.6 24.5 181.8 24.85 179.25 24.95 176.25 24.95 170.6 24.2
L 160.25 22.85
Q 154.8 22.1 151.5 20.95
L 146.65 18.95
Q 141.6 17.15 133.6 17.4
L 120.05 17.95
Q 117.1 17.7 112.3 17.1
L 101.85 15.65
Q 98.7 15.3 96.85 14.7 95.65 14.4 94.05 13.65
L 91.3 12.55
Q 85.85 10.35 79.8 10.35 77.5 10.35 70.9 11.4 65.15 12.4 61.8 12.15 57.85 12 51.9 10.15
L 50.65 9.7 48.2 9.5
Q 46.75 9.5 45.35 9.25
L 44.8 9.2
Q 44.45 9.2 43.75 9
L 42.15 8.6 32.95 5.4
Q 30.6 4.55 29.25 4.3 27.3 3.9 25.85 3.8
L 18.9 3.05 17.15 3.2 13.15 4.15
Q 12.7 4.35 12.1 4.35
L 10.7 4.8 10.55 4.75 10.35 4.75 4.6 5.55
Q 4.05 5.7 3.8 5.95 3.75 6.05 3.75 6.3
L 3.85 6.5 3.7 7.05
Q 3.05 23.55 3.05 36.45 3.05 44.05 3.35 47.8
L 4 54.35
Q 4.3 58.55 4.05 61 3.85 63.15 3.4 66 3.15 68 3.15 71.6
L 3 108.3
Q 3 111.4 2.65 113.4
L 1.7 117.45
Q 1.55 118.25 1.65 121.15 1.9 124.8 2.3 126.5
L 2.65 127.3 2.8 127.45 2.8 127.55
Q 2.8 127.85 3.5 127.9
L 4.6 128
Q 4.85 127.85 5.85 127.7 6.6 127.7 8.6 127.45 10.7 127.2 11.4 127.2
L 17.45 127.4
Q 24.5 126.95 31.6 127.7
L 35.5 128.2
Q 37.75 128.4 38.55 128.65
L 41.05 129.35
Q 43.2 130.05 44.1 130.65
L 46.9 131.3 47.6 131.55 47.9 131.7
Q 51.55 132.85 56.7 133.45 65.35 134.5 70.7 133.65
L 73.55 133.15
Q 75.35 132.8 76.5 132.7 78.95 132.5 83.95 133.1 89.35 133.7 92.2 134.55 94 135.1 98.95 137.15 102.95 138.9 105.55 139.6 107.7 140.15 111.15 140.55 113.1 140.7 116.7 140.7 120.5 140.8 122.7 140.55
L 127.6 139.75
Q 129.45 139.5 131.1 139.5 132.45 139.5 133.95 139.65 144.95 140.4 155.2 143.85
L 161.65 146.1
Q 165 147.2 168.05 147.55 171 147.7 175.55 147 182.4 145.65 183.15 145.65 187.6 145.15 192.75 145.85
L 194.2 145.85 194.3 145.1 194.35 144.9
Q 194.65 138.7 194.65 128.45 194.65 126.45 194.45 125.05 194.05 123.5 193.95 122.4 193.65 121.05 193.8 118.3
L 194.15 106.55 194.2 106.4
Q 194.3 105.4 194.5 104.8
L 194.65 104.05 194.7 101.95 194.85 101.95 194.9 101.8 195.15 101.3
Q 195.65 99.15 195.95 95.45 196.75 83.75 196.6 72.4 196.45 69.75 196.75 68.4
L 197.4 66 197.8 63.25
Q 198.45 56.25 198.45 54.25 198.25 50.1 198.25 47.1 198.25 43.3 199.2 36.1
L 200.45 26.65 200.6 26.25 200.65 25.55 192.8 24.65 Z"/>
</g>
</defs>

<g transform="matrix( 1, 0, 0, 1, 0,0) ">
<use xlink:href="#Layer0_0_FILL"/>
</g>
</svg>
