
<svg xmlns="http://www.w3.org/2000/svg" version="1.1" xmlns:xlink="http://www.w3.org/1999/xlink" preserveAspectRatio="none" x="0px" y="0px" width="205px" height="150px" viewBox="0 0 205 150">
<defs>
<g id="Layer0_0_FILL">
<path fill="#222222" stroke="none" d="
M 175.3 24.7
L 165 23.3
Q 159.6 22.6 156.3 21.45
L 151.4 19.45
Q 146.35 17.65 138.35 17.9 124.95 18.45 124.75 18.35 122.8 18.35 117.05 17.55
L 106.6 16.1
Q 103.25 15.7 101.65 15.2
L 96.05 13.05
Q 90.45 10.8 84.55 10.85 82.25 10.85 75.65 11.9 69.9 12.9 66.55 12.65 62.65 12.5 56.7 10.65
L 55.4 10.15
Q 53.85 10 53 10
L 49.55 9.7
Q 49.1 9.7 48.45 9.45
L 46.8 9.05 37.7 5.9
Q 35.65 5.15 33.95 4.75 32.55 4.45 30.6 4.3
L 28.8 4.1 28.7 4.15 28.6 4.1 23.65 3.55 21.9 3.7 17.9 4.65 16.8 4.8
Q 16.6 4.9 15.55 5.25
L 15.45 5.3 15.3 5.25 15.1 5.25 13.85 5.5 13.7 5.55 13.6 5.5 13.45 5.6 13.2 5.55 6.45 5.1
Q 4.95 5.1 3.55 5.3 3.25 5.35 3.1 5.5
L 3.15 5.65 3.7 6.3 3.5 6.6
Q 3.4 6.8 3.4 7.25
L 3.4 33.95
Q 3.4 37.45 3.1 39.1
L 2.5 42.2
Q 1.9 45.7 2.5 51.45 3.45 60.1 3.45 61.15 3.55 63.1 3.3 66.9 3.3 70.4 3.65 72.5
L 4.2 75.15
Q 4.6 76.8 4.5 78
L 4.05 80.75
Q 3.3 84.2 3.3 89
L 3.45 97.5
Q 3.6 102.45 3.1 105.55 2.95 106.9 2.25 110.1 1.8 112.8 1.85 114.55
L 1.95 114.65 1.9 114.85
Q 1.8 120.3 2.15 122.6
L 2.3 123.95 2.25 125.45
Q 2.4 126.15 2.75 126.5 3.05 126.9 4.45 127.1
L 16.9 128.65 18.2 128.7
Q 19 128.7 19.55 128.45
L 19.9 128.35 19.9 128 20.4 127.95 22.2 128.1
Q 28.8 127.6 36.3 128.4
L 40.2 128.85
Q 42.7 129.15 43.25 129.35
L 45.75 130.05
Q 47.85 130.75 48.75 131.3
L 51.65 132 52.2 132.2 52.6 132.4
Q 56.15 133.55 61.45 134.15 70.1 135.2 75.45 134.35
L 78.35 133.8
Q 80.3 133.45 81.3 133.4 83.7 133.2 88.7 133.8 94.2 134.4 96.9 135.25 99.15 135.95 103.65 137.8 108.05 139.75 110.25 140.3 112.55 140.85 115.85 141.25 117.9 141.4 121.45 141.4 125.75 141.5 127.45 141.25
L 132.4 140.4
Q 133.75 140.2 135.65 140.2 137.1 140.2 138.65 140.35 149.75 141.1 159.9 144.55
L 166.4 146.8
Q 169.85 147.9 172.75 148.2 175.7 148.4 180.3 147.65 187.25 146.35 187.85 146.35 190.85 146 194 146.2
L 194.3 146.2 194.35 146.3 195 146.3 195.1 145.25 195.1 145.2 195.05 145
Q 195.5 134.55 195.05 123.25 194.95 120.05 195.1 118.7 195.1 118.1 195.25 117.4
L 195.2 116.45 195.05 116.45 195.05 114.25
Q 195.05 113.65 195.2 113.45
L 195.25 112.6 195.7 110.3
Q 195.95 108.95 195.95 108.2
L 196 106.8
Q 196 106.35 196.15 105.95 196.1 103.75 196.3 100.95
L 198.3 73.35
Q 198.95 64.15 198.7 58.35
L 198.5 53.5
Q 198.5 52 198.8 49.75
L 199.25 46.1
Q 199.35 43.75 199.3 37.25 199.2 31.65 200.25 28.5 200.5 27.55 200.4 27.05
L 200.05 26.25 200.15 26.25 200.1 26.15 199.7 25.5 199.5 25.35 197.55 25.15
Q 193.55 24.9 191.3 24.95 186.95 25.35 183.95 25.45 181 25.45 175.3 24.7 Z"/>
</g>
</defs>

<g transform="matrix( 1, 0, 0, 1, 0,0) ">
<use xlink:href="#Layer0_0_FILL"/>
</g>
</svg>
