
<svg xmlns="http://www.w3.org/2000/svg" version="1.1" xmlns:xlink="http://www.w3.org/1999/xlink" preserveAspectRatio="none" x="0px" y="0px" width="205px" height="150px" viewBox="0 0 205 150">
<defs>
<g id="Layer0_0_FILL">
<path fill="#222222" stroke="none" d="
M 199.25 27.3
L 198.45 25.7 195.75 25.65
Q 191.4 26.05 188.4 26.15 185.45 26.15 179.75 25.4
L 169.45 24
Q 163.95 23.25 160.75 22.15
L 155.8 20.15
Q 150.85 18.35 142.8 18.6 129.7 19.1 129.25 19.05 127.15 19.05 121.5 18.25
L 111.05 16.8
Q 107.7 16.45 106.05 15.9 104.65 15.45 103.25 14.8
L 100.45 13.75
Q 94.8 11.45 89 11.6 86.45 11.6 80.05 12.6 74.4 13.6 71 13.35 67.05 13.2 61.1 11.35
L 59.8 10.85
Q 58.8 10.75 57.4 10.75
L 54 10.4
Q 53.6 10.4 52.85 10.15
L 42.15 6.6
Q 39.55 5.7 38.4 5.45 37 5.15 35.05 5
L 33.25 4.8 33.1 4.85 33.05 4.8 28.05 4.25 26.4 4.4 22.35 5.35 21.3 5.5
Q 20.45 5.8 20.05 5.95
L 19.9 6 19.75 5.95 19.55 5.95 18.3 6.2 18.15 6.25 18.05 6.2 17.85 6.3 17.65 6.25 10.9 5.8
Q 9.842578125 5.8 8.05 5.95
L 3.75 5.05 3.05 5.05 2.75 5.15 2.75 5.3 2.9 5.6 2.95 5.75 2.9 5.95
Q 2.3 8.8 2.55 14.65 3.45 33.7 3.05 45.8 2.9 52.45 2.15 65.35 2.05 73.9 2.15 76.95 2.15 79.95 2.45 81.75
L 3.3 86.1
Q 3.65 88.75 3.35 93.1 3.45 96.05 3.75 99.2 4.2 103.5 4.15 105.55 4.15 107.75 3.65 111.1 3.15 115.15 3.1 116.55 3 120 3.55 124.3
L 3.6 124.25 3.8 126.1
Q 4.15 126.25 5.55 126.55
L 10.35 127.55
Q 11.75 127.95 12.75 128.15
L 14.55 128.45
Q 17.5 128.65 19.15 128.7 20.65 128.8 21.65 128.7
L 22.95 128.55 23.35 128.55 23.55 128.5
Q 24.05 128.35 25.05 128.5
L 25.3 128.5 26.65 128.6
Q 33.65 128.15 40.75 128.9
L 44.65 129.35
Q 47.2 129.65 47.75 129.85
L 50.25 130.55
Q 52.3 131.25 53.25 131.8
L 56.05 132.5 56.75 132.75 57.05 132.9
Q 60.7 134.05 65.9 134.65 74.55 135.7 79.8 134.85
L 82.75 134.3
Q 84.7 133.95 85.75 133.9 88.4 133.65 93.15 134.3 98.55 134.9 101.4 135.75 103.75 136.45 108.1 138.3 112.6 140.25 114.7 140.8 117 141.35 120.3 141.75 124.35 141.9 125.85 141.9 130.15 142 131.85 141.75
L 136.8 140.9
Q 138.2 140.7 140.05 140.7 141.5 140.7 143.15 140.85 154.2 141.6 164.35 145.05
L 170.85 147.3
Q 174.3 148.4 177.25 148.7 180.15 148.9 184.7 148.15 191.75 146.85 192.3 146.85 193.55 146.65 195.3 146.65
L 195.3 146.5 195.45 146.15 195.55 134.45
Q 195.4 127.95 195.9 123.45
L 196.15 120.95
Q 196.3 119.4 196.3 116
L 196.2 107.95 196.5 107.5
Q 196.65 107.25 196.65 106.7
L 197.25 85.15
Q 197.4 77.3 198.4 73.35
L 199.25 70.35
Q 199.65 68.75 199.85 67.4 200 65.85 199.85 62.8 198.7 45.55 199.4 28.45 199.25 27.35 199.25 27.3 Z"/>
</g>
</defs>

<g transform="matrix( 1, 0, 0, 1, 0,0) ">
<use xlink:href="#Layer0_0_FILL"/>
</g>
</svg>
