
<svg xmlns="http://www.w3.org/2000/svg" version="1.1" xmlns:xlink="http://www.w3.org/1999/xlink" preserveAspectRatio="none" x="0px" y="0px" width="205px" height="150px" viewBox="0 0 205 150">
<defs>
<g id="Layer0_0_FILL">
<path fill="#222222" stroke="none" d="
M 173.6 24.5
Q 168 23.75 164.85 22.6
L 159.95 20.6
Q 155 18.8 146.95 19.05
L 133.45 19.6
Q 130.55 19.4 125.65 18.75
L 115.2 17.3
Q 111.8 16.9 110.2 16.4 108.8 15.95 107.4 15.3 104.8 14.25 104.6 14.2 99.2 11.95 93.15 12.05 90.4 12.05 84.25 13.1 78.4 14 75.15 13.8 71.2 13.65 65.25 11.8
L 63.95 11.35
Q 62.45 11.2 61.55 11.2
L 58.7 10.95 58.15 10.85
Q 57.85 10.85 57.05 10.65
L 46.25 7.05
Q 43.45 6.1 42.55 5.95 40.6 5.55 39.2 5.45
L 32.2 4.7 30.5 4.85 26.5 5.8
Q 26.05 6 25.4 6
L 24.05 6.45 23.9 6.4 23.7 6.4 22.45 6.65 22.3 6.7 21.85 6.6
Q 18.35 6.3 15.9 6.3
L 13.9 6.3 13.4 6.2
Q 13.35 6.25 11.5 6.1
L 8.05 5.55 5.75 4.6 3.3 3.2
Q 2.8 3.05 2.65 3.15
L 2.6 3.45 2.75 4.55
Q 2.85 5.05 2.75 6.1
L 2.9 6.55 2.9 49.95
Q 2.9 57.85 3.3 62.15
L 3.95 67.4
Q 4.25 70.05 4.15 77.1 3.6 100 3.9 124.85
L 3.9 124.95 3.85 125 3.9 125.15 3.9 125.25 3.95 125.35 8.05 126.65
Q 8.55 126.85 9.45 127
L 9.5 126.95 9.65 127 16.85 128.6 23.05 129.3
Q 24.75 129.35 29.2 129.2
L 31.15 129.05
Q 38.05 128.6 44.9 129.35
L 48.8 129.85
Q 51.25 130.1 51.9 130.3
L 54.4 131
Q 56.5 131.75 57.4 132.3
L 60.2 132.95 60.9 133.2 61.2 133.35
Q 64.85 134.5 70.05 135.1 78.7 136.15 83.95 135.3
L 86.9 134.8
Q 88.65 134.45 89.9 134.35 92.55 134.1 97.3 134.75 102.7 135.4 105.55 136.2 107.5 136.8 112.25 138.8 116.7 140.75 118.85 141.25 121.7 141.95 124.45 142.2 128.5 142.35 130.05 142.35 134.3 142.45 136 142.2 137.2 142.1 140.95 141.4 142.8 141.15 144.4 141.15 145.8 141.15 147.3 141.3 158.35 142.05 168.5 145.5
L 175 147.75
Q 178.35 148.85 181.4 149.2 184.25 149.35 188.9 148.65 195.7 147.3 196.45 147.3 196.65 147.25 196.9 147.4
L 197.05 147.45 197.85 147.4 197.85 147.2 197.8 147.2 197.85 146.6 198.1 78.3
Q 198.25 78.15 198.25 77.25 197.75 74.2 197.75 72.35 197.7 70.75 198.05 68.35
L 198.55 64.6 199 49.8
Q 199.05 47.4 198.9 45.3 198.1 41.25 197.95 39.7 197.75 37.9 198.1 33.3 198.25 29.8 197.95 27.6
L 197.8 26.9 197.9 26.9 197.9 26.8 197.7 26.35
Q 193.4 26.55 192.55 26.55 189.2 26.55 183.9 25.85
L 173.6 24.5 Z"/>
</g>
</defs>

<g transform="matrix( 1, 0, 0, 1, 0,0) ">
<use xlink:href="#Layer0_0_FILL"/>
</g>
</svg>
