
<svg xmlns="http://www.w3.org/2000/svg" version="1.1" xmlns:xlink="http://www.w3.org/1999/xlink" preserveAspectRatio="none" x="0px" y="0px" width="205px" height="150px" viewBox="0 0 205 150">
<defs>
<g id="Layer0_0_FILL">
<path fill="#222222" stroke="none" d="
M 168 22.95
L 163.1 20.95
Q 158.05 19.15 150.05 19.4 136.95 19.9 136.5 19.85 134.5 19.85 128.75 19.05
L 118.3 17.6
Q 115.05 17.25 113.3 16.7 111.9 16.25 110.5 15.6
L 107.7 14.55
Q 102.1 12.25 96.25 12.4 93.65 12.4 87.4 13.4 81.6 14.4 78.25 14.15 74.3 14 68.35 12.15
L 67.1 11.65
Q 66.05 11.55 64.65 11.55
L 61.8 11.25 61.25 11.25 49.4 7.4
Q 46.8 6.5 45.65 6.25 44.25 5.95 42.3 5.8
L 40.5 5.6 40.35 5.65 40.3 5.6 35.35 5.05 33.65 5.2 29.6 6.15 28.55 6.3
Q 28.35 6.4 27.3 6.75
L 27.15 6.8 27 6.75 26.8 6.75 25.25 7.05 25 6.95
Q 21.5 6.65 19.05 6.65
L 18.15 6.65
Q 17.55 6.55 17 6.65 15.75 6.7 14 6.4
L 13.9 6.4 10.7 5.5
Q 9.9 5.25 7.8 4.2
L 4.15 2.3
Q 3.65 2 3.2 1.9 2.75 1.8 2.65 1.9 2.65 1.95 2.6 2.65
L 3.4 8.8
Q 3.4 9.75 3.5 10
L 3.55 10.15
Q 3.65 17.05 2.95 28.3 2.25 42.35 2.65 49.75
L 3.5 59.4
Q 4.05 65 4.15 69.05 4.15 72.5 3.6 80.1 2.3 101.15 3.55 122.1
L 3.8 122.4 3.8 122.75
Q 4.15 122.95 4.6 123.5
L 4.75 123.7 5.3 124.15 6.5 124.9 8.15 125.55 7.75 125.75 8.75 126.3 11.15 127
Q 11.65 127.2 12.55 127.35
L 12.75 127.35 17.95 128.5 18.55 128.55 21.8 129.25 26.1 129.6
Q 28.55 129.7 32.3 129.55
L 34.25 129.4
Q 41.15 128.95 48 129.7
L 51.95 130.15
Q 54.45 130.45 55 130.65
L 57.5 131.35
Q 59.6 132.05 60.5 132.6
L 63.35 133.3 64.1 133.6 64.35 133.75
Q 68.15 134.9 73.15 135.45 81.8 136.5 87.15 135.65
L 90 135.1
Q 91.95 134.75 92.95 134.7 95.4 134.5 100.4 135.1 105.8 135.7 108.65 136.55 110.9 137.25 115.4 139.1 119.7 141 122 141.6 124.15 142.15 127.6 142.55 128.9 142.65 133.1 142.65 136.8 142.8 139.15 142.55
L 144.05 141.7
Q 145.45 141.5 147.35 141.5 148.85 141.5 150.4 141.65 161.45 142.4 171.6 145.85
L 178.1 148.1
Q 181.55 149.2 184.5 149.5 186.4 149.65 189.3 149.4 190.75 149.35 193.05 149.4 196.7 149.4 197.95 149.3
L 198.5 149.15 198.5 149.1 198.4 148.75 197.9 148.75 199.35 115.35
Q 199.35 109.55 198.55 96.15 197.65 84.25 198.15 76.9
L 198.65 70.2
Q 198.9 66.3 198.8 63.55
L 198.05 55.7
Q 197.4 49.85 197.4 42.55
L 197.45 29.45 197.3 27.3 197.15 27 196.75 26.8 196.3 26.9 195.6 26.9
Q 192.35 26.9 187.05 26.2
L 176.7 24.8
Q 171.3 24.1 168 22.95 Z"/>
</g>
</defs>

<g transform="matrix( 1, 0, 0, 1, 0,0) ">
<use xlink:href="#Layer0_0_FILL"/>
</g>
</svg>
