
<svg xmlns="http://www.w3.org/2000/svg" version="1.1" xmlns:xlink="http://www.w3.org/1999/xlink" preserveAspectRatio="none" x="0px" y="0px" width="205px" height="150px" viewBox="0 0 205 150">
<defs>
<g id="Layer0_0_FILL">
<path fill="#222222" stroke="none" d="
M 181.45 27.05
Q 178 26.9 175.85 26.65 173.3 26.4 165.75 24.75 156.8 22.95 146.6 22.15
L 140.7 21.7
Q 139.4 21.55 135.5 20.85
L 130.45 20
Q 128.2 19.65 122.85 19.3
L 115.15 18.75
Q 111.25 18.4 106.9 17.65
L 86.7 14.65
Q 80.65 13.75 77.05 13.1
L 70.35 11.85
Q 67.15 11.25 63.7 10.85 55 10.6 50.85 9.75 49.75 9.55 46.35 8.55
L 41.95 7.25
Q 35.95 5.6 27.25 5.6
L 21.15 5.75
Q 17.8 5.8 15 5.65 7.8 5.2 3 2.35
L 2.85 2.2
Q 2.7 2.15 2.6 1.9
L 2.25 1.15 1.9 1.5 1.9 2
Q 1.95 2.15 1.9 2.2
L 2 2.6 2.2 2.85
Q 3.3 5.95 3.95 9.2 5.3 15.8 4.6 25.75
L 4.4 30.95
Q 4.35 33.7 4.65 36.1 5.05 38.55 4.95 39.1 4.95 39.6 4.7 40.6
L 4.35 42
Q 4 43.35 4.25 46.85
L 5.35 57.8
Q 5.65 61.1 5.3 63.8
L 4.7 67.3
Q 4.35 69.3 4.25 70.65 4.25 72.1 4.6 74.15 5.05 76.95 5.05 77.85 5.15 78.85 5 81.5
L 3.75 101.75
Q 3.25 111.35 3.3 115.2 3.45 119.45 4.1 125.65 4.2 126.1 3.8 126.25
L 3.65 126.45
Q 3.5 126.7 3.95 127.05 4.15 127.25 5.2 127.45 10.3 128.3 13.45 128.2 16.5 128.2 23.85 127 28.2 126.5 38.45 126.8 43.2 126.95 45.4 128.05 46.2 128.4 47.9 129.65 49.45 130.75 50.25 131.1 51.8 131.75 54.65 131.9 55.5 131.85 59.45 131.95 61.35 132.1 63.85 132.75
L 68.15 133.65
Q 71.15 134.05 75.6 133.8 77.65 133.7 83.15 133.1 86.3 132.85 94.3 132.85 97.9 132.85 99.7 133 102.65 133.3 104.95 134.15 106.35 134.75 109.7 136.6 111 137.2 114.55 138.4
L 120.2 140.25
Q 122 140.9 123.85 141.3 125.75 141.65 128.7 141.9 134.95 142.25 136.5 142.3 141.15 142.3 144.15 141.75 146.45 141.3 149.75 140.5 153.2 139.75 155.6 139.9 158 140 161 140.9
L 166.15 142.75
Q 172.75 145.25 180.1 146.65 180.55 146.7 180.9 146.65
L 181.15 146.65
Q 187.55 148.2 194.4 149.2 195.6 149.3 195.9 149 196.3 148.65 196 147.2 194.9 142.1 195.75 138.25
L 196.85 134.65
Q 198.1 130.3 197.95 123.9 197.8 118.65 196.75 108.55
L 195.3 95.2
Q 194.4 86.6 194.75 82.4 194.85 81.2 195.4 77.8
L 196.2 73.15
Q 196.75 69.25 196.8 64.1
L 196.65 56
Q 196.6 55.8 196.8 55.55 197.05 55.2 197.05 54.2 196.9 46.1 195.95 39.15
L 195.35 34.55
Q 195.05 31.95 195.3 29.75 195.45 28.35 195 27.95 194.7 27.8 193.9 27.7
L 181.45 27.05 Z"/>
</g>
</defs>

<g transform="matrix( 1, 0, 0, 1, 0,0) ">
<use xlink:href="#Layer0_0_FILL"/>
</g>
</svg>
