
<svg xmlns="http://www.w3.org/2000/svg" version="1.1" xmlns:xlink="http://www.w3.org/1999/xlink" preserveAspectRatio="none" x="0px" y="0px" width="205px" height="150px" viewBox="0 0 205 150">
<defs>
<g id="Layer0_0_FILL">
<path fill="#222222" stroke="none" d="
M 170.95 24.05
Q 167.8 22.2 166.65 21.8 165 21.1 161.05 20.6
L 154.85 19.95
Q 150.8 19.7 148.6 19.75 143.75 20.2 141.25 20.2 137.9 20.2 132.6 19.5
L 122.3 18.1
Q 116.5 17.35 113.55 16.25
L 108.65 14.25
Q 103.4 12.4 95.65 12.7
L 82.1 13.2
Q 79.85 13.1 74.35 12.4
L 63.85 10.95
Q 60.4 10.5 58.9 10 57.75 9.7 56.05 9 54.05 8.1 53.3 7.85 47.9 5.65 41.85 5.7 39.3 5.7 32.9 6.7 27.25 7.7 23.85 7.45 19.9 7.3 13.95 5.45 7.75 3.35 4.25 2.3 3.6 2.1 3.05 2.15
L 2.8 2.25 2.85 2.5 2.95 2.65 2.95 2.85
Q 4.5 8.7 4.1 16.8 4.1 17.9 3.1 30.35 2.45 38.55 2.8 43.95
L 3.6 51.15
Q 4.15 55.55 4.25 58.55 4.25 60.75 3.8 67.95 2.75 82.1 2.7 96.45 2.7 105 3.15 121.7
L 3.2 122.55 2.25 122.25
Q 2.05 122.2 1.75 122.3
L 1.7 122.3
Q 1.75 122.35 2.15 122.85 5.1 125.55 9.85 127 13.5 128.15 18.75 128.75 27.4 129.8 32.65 128.95
L 35.6 128.4
Q 37.55 128.05 38.55 128 40.9 127.8 46 128.4 51.4 129 54.25 129.85 56.7 130.6 60.95 132.45 64.95 134.2 67.55 134.9 69.85 135.45 73.15 135.85 74.5 135.95 78.75 135.95 82.35 136.1 84.7 135.85 87.15 135.5 89.65 135.05 92.6 134.6 95.95 134.95 107.05 135.7 117.2 139.15
L 123.7 141.4
Q 127.15 142.5 130.1 142.8 133 143 137.55 142.25 144.45 140.95 145.15 140.95 147.25 140.7 149.05 140.7 156.3 140.7 163.85 143.55
L 167.1 144.85
Q 169 145.7 170.25 146.05 173.1 147 178.45 147.8 186.55 149.05 197.45 150.1
L 198.45 149.95 198.45 149.85 198.25 149.75 197.85 149.6 197.85 149.05 197.9 148.85
Q 198.05 148.4 198 147.8 197.55 141.4 198.25 132.5
L 199.65 117.4
Q 200.7 104 200.5 94.1
L 196.9 27.3 197.8 26.95 197.9 26.75 197.85 26.75 197.9 26.6
Q 197.8 26.45 197.3 26.35
L 196.95 26.35 196.8 26.1 196.75 26.05 196.75 26.35 188.2 26.6
Q 182.95 26.8 179.5 26.4 174.75 25.95 171 24.05
L 170.95 24.05 Z"/>
</g>
</defs>

<g transform="matrix( 1, 0, 0, 1, 0,0) ">
<use xlink:href="#Layer0_0_FILL"/>
</g>
</svg>
