
<svg xmlns="http://www.w3.org/2000/svg" version="1.1" xmlns:xlink="http://www.w3.org/1999/xlink" preserveAspectRatio="none" x="0px" y="0px" width="205px" height="150px" viewBox="0 0 205 150">
<defs>
<g id="Layer0_0_FILL">
<path fill="#222222" stroke="none" d="
M 169.4 22.15
Q 167.85 21.5 163.8 20.9
L 157.6 20.3
Q 153.6 20.05 151.4 20.1 146.95 20.5 144 20.6 141.05 20.6 135.4 19.85
L 125.05 18.45
Q 119.55 17.7 116.35 16.6
L 111.4 14.6
Q 106.45 12.8 98.4 13.05 85.3 13.55 84.85 13.5 82.75 13.5 77.1 12.7
L 66.65 11.25
Q 63.4 10.9 61.65 10.35 60.25 9.9 58.85 9.25
L 56.05 8.2
Q 50.4 5.9 44.6 6.05 42 6.05 35.75 7.05 29.95 8.05 26.6 7.8 22.65 7.65 16.7 5.8
L 10.05 3.6 10 3.6 8.8 3.5 7.75 3.55 7.3 3.45 7 3.45
Q 5.25 3.7 4.25 3.6
L 4 3.6 3.85 3.45 3.3 3.5 3.15 3.55 2.95 3.85 2.95 3.9 3.25 4.2 4.05 38.45
Q 4.3 49.75 3.7 55.55
L 3.05 61.25
Q 2.75 65.4 2.95 70.3
L 3.6 79.4
Q 4.15 86.3 3.75 89.7 3.6 92 2.85 96.3 2.4 100.05 3 102.75 3.25 103.85 4.15 106.9 4.6 109.1 4.25 112.45 3.85 116.7 3.15 119.8 2.95 121.2 3.3 121.95 3.6 122.25 4.4 122.7
L 4.55 122.75 4.6 122.85 4.9 123.2
Q 7.85 125.9 12.6 127.35 16.2 128.5 21.5 129.1 30.15 130.15 35.5 129.3
L 38.35 128.75
Q 40.3 128.4 41.35 128.35 44.05 128.1 48.75 128.75 54.15 129.35 57 130.2 59.25 130.9 63.75 132.75 68.15 134.65 70.3 135.25 72.6 135.8 75.9 136.2 79.95 136.35 81.5 136.35 85.8 136.45 87.5 136.2
L 92.4 135.35
Q 95.15 135 98.75 135.3 109.8 136.05 119.95 139.5
L 126.45 141.75
Q 129.9 142.85 132.85 143.15 135.75 143.35 140.3 142.6 147.4 141.3 147.9 141.3 150 141.05 151.8 141.05 159 141.05 166.65 143.9
L 173 146.4
Q 175.85 147.35 181.2 148.15 189.6 149.4 197.8 150.15
L 197.75 148.65
Q 197.3 146.4 197.65 142.7
L 199.1 119.1
Q 199.55 109.7 199.55 109.4 199.85 94.1 197.8 73.55
L 197.05 66.15
Q 196.3 58.4 195.95 46.85 195.4 33.5 195.05 28.15
L 194.95 27.45 195.25 27.45 195.05 26.85 191 26.95
Q 185.2 27.1 182.3 26.75 177.45 26.3 173.8 24.4 171.05 22.75 169.45 22.15
L 169.4 22.15 Z"/>
</g>
</defs>

<g transform="matrix( 1, 0, 0, 1, 0,0) ">
<use xlink:href="#Layer0_0_FILL"/>
</g>
</svg>
