
<svg xmlns="http://www.w3.org/2000/svg" version="1.1" xmlns:xlink="http://www.w3.org/1999/xlink" preserveAspectRatio="none" x="0px" y="0px" width="205px" height="150px" viewBox="0 0 205 150">
<defs>
<g id="Layer0_0_FILL">
<path fill="#222222" stroke="none" d="
M 171.35 21.9
L 165.15 21.3
Q 161.1 21.05 158.95 21.1 154.5 21.5 151.55 21.6 148.6 21.6 142.95 20.85
L 132.6 19.45
Q 127.2 18.75 123.9 17.6 120.85 16.4 119 15.5 114.05 13.8 105.95 14.05 92.6 14.6 92.3 14.5 90.1 14.4 84.65 13.7
L 74.2 12.25
Q 70.95 11.9 69.2 11.35 67.8 10.9 66.4 10.25
L 63.65 9.15
Q 58 6.85 52.15 7 49.4 7 43.3 8.05 37.5 9.05 34.15 8.8 30.1 8.65 24.25 6.75
L 17.35 4.5 17.6 4.8 15.8 4.5 15.45 4.5 15.2 4.55 14.95 4.4
Q 14.7 4.15 13.4 3.95
L 3.6 2.75 2.85 2.75 2.85 2.85 2.75 3.05
Q 2.65 3.45 2.7 3.7 3.75 13.1 3.65 30.9 3.6 40.4 3.65 49.8 3.7 55.75 4.2 71.05
L 4.65 83.8 4.55 83.95 4.45 84.4 4.1 100.2
Q 4 103.3 4.15 104.55
L 4.65 108.65
Q 5.05 112.5 4.5 117.6 4.45 118.55 4.15 119.05 3.95 119.5 3.3 120.05
L 2.7 120.65
Q 2.55 121.05 2.95 121.65 3.25 122.25 4.05 122.7 5 123.15 7.55 123.65 8.45 123.85 10.4 124.85
L 14.3 126.65
Q 15.2 127 15.55 127 15.59375 127 15.6 127 18.4119140625 127.7310546875 20.2 128.3 23.75 129.45 29.05 130.1 37.95 131.1 43.05 130.3 43.05 130.25 45.9 129.75 47.7 129.4 48.85 129.3 51.3 129.1 56.3 129.7 61.85 130.4 64.55 131.2 66.8 131.9 71.3 133.75 75.8 135.7 77.9 136.25 80.05 136.8 83.5 137.2 87.4 137.35 89.05 137.35 92.85 137.45 95.05 137.2
L 99.95 136.35
Q 102.9 135.95 106.25 136.25 117.4 137 127.55 140.5
L 134 142.75
Q 137.45 143.85 140.4 144.15 143.35 144.35 147.85 143.6 154.95 142.3 155.45 142.3 157.6 142.05 159.4 142.05 166.55 142.05 174.2 144.85 174.5 145.05 177.4 146.15 179.35 147 180.55 147.35 183.7 148.4 188.75 149.15 188.8 149.15 199 150.45
L 199.05 150.45 199.1 150.3 199.15 149.85 198.95 149.85 199.05 149.3
Q 199.2 148.2 199.2 146.3
L 198.55 109.95 198.65 109.8 198.7 109.7 198.5 108.25
Q 198.35 107.3 198.4 106.2
L 198.45 104.3 197.55 100.9
Q 197.1 99 197.35 95.2 197.75 85.7 196.9 76.15
L 196.5 71.45
Q 196.15 67.05 196.2 60.75
L 196.35 50.15
Q 196.4 39.05 195.1 29.3
L 195.05 29 195.15 28.9 195 28 194.25 28 194 28.05 193.85 27.9 193.75 27.95 193.55 28
Q 191.5 28 189.85 27.75 185.1 27.3 181.35 25.35 178.25 23.55 176.95 23.1 175.3 22.4 171.35 21.9 Z"/>
</g>
</defs>

<g transform="matrix( 1, 0, 0, 1, 0,0) ">
<use xlink:href="#Layer0_0_FILL"/>
</g>
</svg>
