
<svg xmlns="http://www.w3.org/2000/svg" version="1.1" xmlns:xlink="http://www.w3.org/1999/xlink" preserveAspectRatio="none" x="0px" y="0px" width="205px" height="150px" viewBox="0 0 205 150">
<defs>
<g id="Layer0_0_FILL">
<path fill="#222222" stroke="none" d="
M 170.65 21.85
Q 167.2 21.65 164.4 21.7 159.55 22.15 157 22.15 154.1 22.15 148.4 21.4
L 138.1 20.05
Q 132.5 19.3 129.35 18.15 125.4 16.5 124.45 16.15 119.5 14.35 111.45 14.6
L 97.95 15.15
Q 95.05 14.95 90.15 14.3
L 79.65 12.85
Q 76.35 12.5 74.7 11.95
L 71.85 10.9
Q 69.85 10 69.1 9.75 63.75 7.55 57.65 7.55 55.2 7.55 48.75 8.65 42.9 9.55 39.65 9.35 35.7 9.2 29.75 7.35 28.3 6.85 25.7 6.2 23.5064453125 5.63125 22.6 5.35
L 22.6 5.3 20.75 5.05 20.6 5.05 20.45 5
Q 20.1 4.75 18.9 4.55 13.3 3.75 6.85 1.55
L 3 1.05 2.3 1.1
Q 2.15 1.45 2.3 2.25 2.85 4.75 2.85 8.15
L 2.7 13.9
Q 2.8 17.45 3.05 21.4 3.55 26.9 3.55 28.9 3.9 35.6 2.95 42.75 2.9 43.55 3 43.85
L 3.1 44.05 3.05 44.25 3 44.9 3.4 65.4
Q 3.5 66.45 3.6 73.1
L 3.95 95.7
Q 4.05 105.8 3.95 108.6 3.8 115.75 2.9 121.35 2.75 122.4 3.3 122.6
L 3.55 122.55 3.8 122.7 4.5 122.95 6.4 123.25 6.45 123.25 6.8 123.3 6.8 123.3 11.1 124.1
Q 11.55 124.2 13 124.25 14 124.45 15.9 125.45
L 18.6 126.65 18.95 126.7 22.35 127.7
Q 23.976171875 128.3572265625 25.65 128.9 29.3 130.05 34.55 130.65 43.2 131.7 48.45 130.85
L 51.4 130.35
Q 53.15 130 54.4 129.9 56.7 129.7 61.8 130.3 67.2 130.95 70.05 131.75 72.3 132.55 76.75 134.35 81.2 136.3 83.35 136.8 86.2 137.5 88.95 137.75 91 137.9 94.5 137.9 98.35 138 100.5 137.75 101.7 137.65 105.45 136.95 108.4 136.55 111.7 136.85 122.8 137.6 133 141.05
L 139.5 143.3
Q 142.85 144.4 145.9 144.75 148.75 144.9 153.4 144.2 160.2 142.85 160.95 142.85 169.85 141.8 179.65 145.45 179.95 145.65 182.9 146.75 184.8 147.6 186.05 147.95 189.2 149 194.25 149.75
L 196.8 150.05 197.4 150.05 198.2 150.2 198.55 149.3 198.25 138.1
Q 198.1 135.35 197.9 134.55
L 197.4 132.7
Q 197.15 131.6 197.05 129.45 196.2 118.45 196.35 111.45 196.4 108.55 196.25 106.75 195.8 104.7 195.6 103.4 195.2 101.5 195.3 98.75
L 195.45 93.85 195.6 93.45
Q 196.05 89.8 196.2 81.05 196.2 76.45 195.95 74.35
L 195.25 70.4
Q 194.8 68.15 194.6 66.4
L 194.2 56.75
Q 193.95 54 193.95 51.55
L 194.3 44.9
Q 194.55 39.85 194.15 29.6
L 194.1 29.5 193.7 28.9 193.4 28.1
Q 189.6 27.4 186.85 25.95 183.65 24.15 182.45 23.7 180.8 23 176.85 22.5
L 170.65 21.85 Z"/>
</g>
</defs>

<g transform="matrix( 1, 0, 0, 1, 0,0) ">
<use xlink:href="#Layer0_0_FILL"/>
</g>
</svg>
