
<svg xmlns="http://www.w3.org/2000/svg" version="1.1" xmlns:xlink="http://www.w3.org/1999/xlink" preserveAspectRatio="none" x="0px" y="0px" width="205px" height="150px" viewBox="0 0 205 150">
<defs>
<g id="Layer0_0_FILL">
<path fill="#222222" stroke="none" d="
M 174.85 22.45
Q 170.75 22.2 168.6 22.25 163.75 22.7 161.25 22.7 157.9 22.7 152.6 22
L 142.3 20.6
Q 136.8 19.85 133.6 18.75
L 128.65 16.7
Q 123.75 14.95 115.65 15.2 102.3 15.75 102 15.65 99.8 15.55 94.35 14.85
L 83.85 13.4
Q 80.55 13.05 78.9 12.5
L 73.3 10.3
Q 67.85 8.1 61.85 8.1 59.4 8.1 52.95 9.2 47.2 10.2 43.85 9.95 39.8 9.8 33.95 7.9
L 27.2 5.7 27.15 5.65 26.95 5.65 16.35 4.15
Q 12.55 2.55 11 2.1
L 8.5 1.8 8.3 1.8 8.15 1.6
Q 7.7 1.3 7.05 1.1 5.25 0.45 3.05 0.15 2.4 0.25 2.35 0.25
L 2.2 0.95
Q 2.3 15.55 3 28.4
L 3.3 33.05
Q 3.65 35.9 3.65 37.2 3.8 39.5 3.25 41.25 3.05 41.9 3.1 42.05
L 3.2 42.25 3.4 42.55 3.25 42.85 2.9 51.2
Q 2.9 53.9 3.25 58.25 3.8 65.55 3.8 70.85 3.8 76.75 3.35 81.45 3.25 82.05 3.5 82.45
L 3.65 82.7 3.5 83 3 92.15
Q 2.9 95.65 2.95 96.9
L 3.3 100.3
Q 3.5 102.6 3.5 105.45
L 3.5 116.95
Q 3.5 119.5 3.25 120.85
L 3.2 121.75
Q 3.3 122.3 3.9 122.5
L 4 122.55 5.45 123.5 11.2 124
Q 14.3 124.2 16.45 124.65
L 16.5 124.65 17.15 124.8
Q 18.2 125 20.1 126
L 22.8 127.25 23.15 127.3 27.5 128.6
Q 28.603515625 129.0345703125 29.85 129.45 33.4 130.6 38.75 131.25 47.65 132.25 52.7 131.45 52.7 131.4 55.6 130.9 57.35 130.55 58.6 130.45 60.9 130.25 66 130.85 71.55 131.55 74.25 132.35 76.5 133.05 80.95 134.9 85.25 136.8 87.55 137.4 89.85 137.95 93.15 138.35 94.5 138.45 98.75 138.45 102.35 138.6 104.7 138.35
L 109.65 137.5
Q 112.6 137.1 115.9 137.4 127.1 138.15 137.2 141.65
L 143.65 143.9
Q 147.2 145 150.1 145.3 153 145.5 157.55 144.75 164.45 143.45 165.15 143.45 167.3 143.2 169.1 143.2 176.2 143.2 183.85 146
L 187.1 147.3
Q 189 148.15 190.25 148.5 193.2 149.5 197.55 150.1
L 197.55 148.45
Q 197.35 147.15 196.85 140.1
L 195.6 125.7
Q 195.45 124.35 195.5 122.65
L 195.15 117.35
Q 194.8 115.35 194.8 114.85 194.5 112.55 194.85 110.15 194.9 109.15 194.8 109.05
L 194.75 108.65
Q 195.1 102.75 194.95 94.8
L 194.4 80.65
Q 194.25 78.7 194.55 77.75
L 194.7 76.8 194.8 76.65 194.9 76.45
Q 194.9 76.1 194.8 75.85
L 194.6 74.8
Q 194.35 73.95 194.35 72.2 194.15 63.75 194.3 58.85
L 194.65 49.4
Q 194.7 44.65 194.45 40.05
L 194.35 37.25 194.7 34.95
Q 195 33.3 194.9 29.55
L 194.35 28.7 194.05 27.8
Q 192.45 27.25 191 26.5 187.7 24.65 186.65 24.25 185 23.55 181.05 23.05
L 174.85 22.45 Z"/>
</g>
</defs>

<g transform="matrix( 1, 0, 0, 1, 0,0) ">
<use xlink:href="#Layer0_0_FILL"/>
</g>
</svg>
