
<svg xmlns="http://www.w3.org/2000/svg" version="1.1" xmlns:xlink="http://www.w3.org/1999/xlink" preserveAspectRatio="none" x="0px" y="0px" width="205px" height="150px" viewBox="0 0 205 150">
<defs>
<g id="Layer0_0_FILL">
<path fill="#222222" stroke="none" d="
M 172.75 22.75
Q 167.9 23.2 165.4 23.2 162.05 23.2 156.75 22.5
L 146.45 21.1
Q 140.95 20.35 137.75 19.25
L 132.8 17.25
Q 127.75 15.45 119.75 15.7 106.75 16.2 106.25 16.15 104.15 16.15 98.5 15.35
L 88 13.9
Q 84.7 13.55 83.05 13
L 77.45 10.8
Q 72 8.6 66 8.6 63.65 8.65 57.05 9.7 51.4 10.7 47.95 10.45 43.95 10.3 38.1 8.45
L 36.8 7.95
Q 35.8 7.85 34.4 7.85
L 31.55 7.55 31 7.55 28.2 6.85 19.15 3.7
Q 16.35 2.75 15.4 2.55 14 2.25 12.05 2.1
L 4.6 1.25
Q 3.65 1.2 3.45 1.25
L 3.3 1.4 3.4 1.85 3.1 2.05
Q 3 2.3 3.15 3.2 3.8 7.15 3.65 13.25 3.35 45.25 2.85 84.75 2.85 85.9 3.1 86.15
L 3.25 86.35 3.25 86.5
Q 3.4 99.05 2.95 106.25
L 2.7 109.65
Q 2.35 114.4 2.45 117.6 2.6 119.45 2.9 120
L 3.55 121.65 3.55 121.85
Q 3.65 122.55 3.5 123.7 3.6 124 3.75 124.15
L 4 124.4 4.4 124.35 4.5 124.35 7.65 124.9 23.35 126.4
Q 23.95 126.5 24.2 126.6
L 25.05 126.85 25.15 126.95 25.3 127 27.05 127.8
Q 27.05 127.7 27.15 127.8
L 27.3 127.8 30.65 128.7
Q 32.271875 129.50625 34 130 37.65 131.15 42.9 131.75 51.55 132.8 56.8 131.95
L 62.7 130.95
Q 65.2 130.75 70.15 131.4 75.55 132 78.4 132.85 80.65 133.55 85.1 135.4 89.4 137.3 91.7 137.9 94 138.45 97.3 138.85 98.65 138.95 102.9 138.95 106.5 139.1 108.85 138.85
L 113.8 138
Q 116.85 137.6 120.1 137.95 131.2 138.7 141.35 142.15
L 147.8 144.4
Q 151.35 145.5 154.25 145.8 157.15 146 161.7 145.25 168.6 143.95 169.3 143.95 171.4 143.7 173.2 143.7 180.45 143.7 188 146.55
L 194.4 149.05 196.8 149.7 196.75 148.05
Q 196.8 139 196.25 133.05 195.1 125.6 194.8 122.25 194.45 118.45 194.45 111.7 194.45 106.3 194.3 101.2
L 193.75 93.7
Q 193.5 90.15 193.5 83.45 193.6 71.2 194.25 61.6
L 196 41.55
Q 196.4 37.45 196.15 29.25 196 28.8 196 28.25
L 195.85 28 195.6 27.3 195.15 27.05
Q 192.1 25.25 190.8 24.8
L 190.8 24.75
Q 189.15 24.05 185.2 23.55
L 179 22.95
Q 174.9 22.7 172.75 22.75 Z"/>
</g>
</defs>

<g transform="matrix( 1, 0, 0, 1, 0,0) ">
<use xlink:href="#Layer0_0_FILL"/>
</g>
</svg>
