
<svg xmlns="http://www.w3.org/2000/svg" version="1.1" xmlns:xlink="http://www.w3.org/1999/xlink" preserveAspectRatio="none" x="0px" y="0px" width="205px" height="150px" viewBox="0 0 205 150">
<defs>
<g id="Layer0_0_FILL">
<path fill="#222222" stroke="none" d="
M 189.35 24.1
L 183.15 23.45
Q 179.6 23.25 176.9 23.3 171.7 23.7 169.55 23.7 166.2 23.7 160.9 23
L 150.6 21.65
Q 145 20.9 141.85 19.75
L 136.95 17.75
Q 131.9 15.95 123.9 16.2
L 110.45 16.7
Q 108.15 16.6 102.65 15.9
L 92.15 14.45
Q 88.8 14.1 87.2 13.5 86.05 13.2 84.35 12.5 82.35 11.6 81.6 11.35 76.1 9.15 70.15 9.2 67.6 9.2 61.2 10.2 55.55 11.2 52.1 10.95 48.2 10.8 42.25 8.95
L 40.95 8.5 38.55 8.3
Q 37.05 8.3 35.7 8.05
L 35.15 8.05 32.45 7.4 32.3 7.4 23.3 4.2
Q 20.85 3.35 19.55 3.1 17.65 2.7 16.15 2.6
L 8.75 1.8
Q 8.45 1.75 7.7 1.75
L 7.55 1.85 7.35 2.05 7.1 2 6 2
Q 4.35 2.5 3.75 2.5
L 3.2 2.55 3.15 2.7 3.35 2.9 3.25 3.25 3.25 3.6
Q 2.8 18.35 3.15 30.75 3.3 33.3 3.2 34.95 3.3 36.1 2.9 39.85 2.7 42.75 2.75 44.55
L 2.85 45.1 2.7 45.3 2.55 45.9
Q 2.25 59.85 2.3 72.25 2.3 75.2 2.45 76.55
L 3.25 80.65
Q 3.7 82.95 3.6 87.9 3.35 94.45 3.05 99.25 2.9 105.8 3.2 110.6
L 3.85 117.35
Q 4.25 121.55 3.95 124.15
L 4 125.1 4.05 125.2 4.1 125.45
Q 4.25 125.65 4.4 125.7
L 4.55 125.75
Q 4.9 125.9 5.9 125.8 8.95 125.35 11.95 125.6
L 12.85 125.6 12.95 125.5 18.15 126.1 19.9 126.05 28.25 127.05 28.2 127 27.7 126.75 31.1 128.25 31.45 128.25 33.95 129.05 34.7 129.2
Q 36.7 130.11328125 38.15 130.5 41.8 131.65 47.05 132.25 55.7 133.3 60.95 132.45
L 63.85 131.95
Q 65.65 131.6 66.85 131.5 69.2 131.3 74.3 131.9 79.7 132.5 82.55 133.35 85 134.1 89.25 135.95 93.25 137.7 95.85 138.4 98.15 138.95 101.45 139.35 102.8 139.45 107.05 139.45 110.65 139.6 113 139.35 115.45 139 117.95 138.55 120.9 138.1 124.25 138.45 135.35 139.2 145.5 142.65
L 151.95 144.9
Q 155.3 146 158.4 146.35 161.4 146.5 165.85 145.75 172.75 144.45 173.45 144.45 175.55 144.2 177.35 144.2 184.6 144.2 192.15 147.05 192.4 147.25 194.65 148.05 194.75 147.35 195.25 146.7 195.4 140.7 195.15 137.3
L 194.65 128.95
Q 194.5 126.15 194.15 124.55 193.7 122.8 193.5 121.55 193.3 120.55 193.3 118
L 193.4 109 193.6 108.9
Q 193.75 108.4 193.7 107.9 192.75 95.1 193.8 83.05
L 195.05 74.05
Q 195.35 71.3 195.3 66.15 195.2 57.95 195.8 49.05
L 197.35 28.5
Q 197.2 28 197.4 27.35
L 197.55 27 197.55 26.55
Q 196 25.7 194.95 25.3 193.3 24.6 189.35 24.1 Z"/>
</g>
</defs>

<g transform="matrix( 1, 0, 0, 1, 0,0) ">
<use xlink:href="#Layer0_0_FILL"/>
</g>
</svg>
