<?xml version="1.0" encoding="utf-8"?>
<!-- Generator: Adobe Illustrator 19.2.1, SVG Export Plug-In . SVG Version: 6.00 Build 0)  -->
<svg version="1.1" id="Capa_1" xmlns="http://www.w3.org/2000/svg" xmlns:xlink="http://www.w3.org/1999/xlink" x="0px" y="0px"
	 viewBox="0 0 30 30" style="enable-background:new 0 0 30 30;" xml:space="preserve">
<style type="text/css">
	.st0{display:none;fill:#EE282C;}
	.st1{fill:#FFFFFF;}
</style>
<g>
	<path class="st0" d="M-20.5,40L-20.5,40c-13.8,0-25-11.2-25-25v0c0-13.8,11.2-25,25-25h0c13.8,0,25,11.2,25,25v0
		C4.5,28.8-6.7,40-20.5,40z"/>
</g>
<g>
	<path class="st0" d="M8.9,40L8.9,40c-13.8,0-25-11.2-25-25v0c0-13.8,11.2-25,25-25h0c13.8,0,25,11.2,25,25v0
		C33.9,28.8,22.7,40,8.9,40z"/>
</g>
<path class="st1" d="M17.5,15l8.8-9.7c0.7-0.8,0.7-2.1-0.1-2.8c-0.8-0.7-2.1-0.7-2.8,0.1L15,11.8L6.6,2.6c-0.7-0.8-2-0.9-2.8-0.1
	C3,3.2,2.9,4.5,3.7,5.3l8.8,9.7l-8.8,9.7c-0.7,0.8-0.7,2.1,0.1,2.8C4.2,27.9,4.7,28,5.2,28c0.5,0,1.1-0.2,1.5-0.7l8.4-9.2l8.4,9.2
	c0.4,0.4,0.9,0.7,1.5,0.7c0.5,0,1-0.2,1.3-0.5c0.8-0.7,0.9-2,0.1-2.8L17.5,15z"/>
</svg>
